<svg xmlns="http://www.w3.org/2000/svg" xmlns:xlink="http://www.w3.org/1999/xlink" version="1.1" width="20" height="20"><rect id="backgroundrect" width="100%" height="100%" x="0" y="0" fill="none" stroke="none"/><g class="currentLayer" style=""><title>Layer 1</title><path d="M10,17.2 C7.5,17.2 5.29,15.920000000000002 4,14 C4.03,12 8,10.9 10,10.9 C12,10.9 15.969999999999999,12 16,14 C14.71,15.920000000000002 12.5,17.2 10,17.2 M10,3 A3,3 0 0 1 13,6 A3,3 0 0 1 10,9 A3,3 0 0 1 7,6 A3,3 0 0 1 10,3 M10,0 A10,10 0 0 0 0,10 A10,10 0 0 0 10,20 A10,10 0 0 0 20,10 C20,4.47 15.5,0 10,0 z" id="svg_1" class="selected" fill="#1565c0" fill-opacity="1"/></g></svg>